<svg xmlns="http://www.w3.org/2000/svg" viewBox="0 0 200 200"><path d="M152 56H48c-6.6 0-12 5.4-12 12v64c0 6.6 5.4 12 12 12h36l16 16 16-16h36c6.6 0 12-5.4 12-12V68c0-6.6-5.4-12-12-12z" fill="#4285F4"/><path d="M100 80c-11 0-20 9-20 20s9 20 20 20 20-9 20-20-9-20-20-20zm0 32c-6.6 0-12-5.4-12-12s5.4-12 12-12 12 5.4 12 12-5.4 12-12 12z" fill="#fff"/><rect x="68" y="72" width="64" height="4" rx="2" fill="#fff" opacity=".5"/><rect x="68" y="124" width="64" height="4" rx="2" fill="#fff" opacity=".5"/></svg>