<svg xmlns="http://www.w3.org/2000/svg" viewBox="0 0 512 210"><path d="M0 0h466.5c5.6 0 10.8 1 15.6 3a40.3 40.3 0 0 1 23.2 23.2c2 4.8 3 10 3 15.6v96.4c0 5.6-1 10.8-3 15.6a40.3 40.3 0 0 1-23.2 23.2c-4.8 2-10 3-15.6 3H274.1l18.3 29.6-62.8-29.6H45.5c-5.6 0-10.8-1-15.6-3A40.3 40.3 0 0 1 6.7 153.8c-2-4.8-3-10-3-15.6V41.8C3.7 18.8 19 3.5 42.1.4 43.9.1 44.9 0 45.5 0H0z" fill="#7f54b3"/><path d="M47.8 34.5c-2.5.3-4.4 1.3-5.7 3.1-1.3 1.8-2.1 4.2-2.4 7.2-.2 2.2.1 4 .9 5.2.8 1.2 2.1 1.9 3.8 2.3l.8.2c-.6 6.3-1.4 11.5-2.5 15.6-1.7 6.3-3.8 11-6.3 14.1-2.8 3.3-5.1 4.7-6.8 4.1-1.2-.4-2.2-2-2.9-4.8-2.8-11.5-5.4-28.7-7.7-51.5-.3-2.3-1.2-3.9-2.7-4.8-1.4-.9-3.6-1.2-6.4-.9-2.3.3-3.9 1-4.8 2.3-.9 1.3-1.2 2.8-1 4.5 3.3 31.9 7 53.8 11.3 65.7 2.1 5.7 4.7 9 8 10s6.5.3 9.8-1.8c4.4-2.9 8.1-7.7 11-14.5 3.5-8.1 5.7-17.5 6.6-28.3l5.7-.7c2.5-.3 4.4-1.3 5.7-3.1 1.3-1.8 2.1-4.2 2.4-7.2.2-2.2-.1-4-.9-5.2-.8-1.3-2.1-2-3.8-2.3l-12.1 1.5zM110 27.5c-4.9 1.5-9.1 5.3-12.5 11.3-3.9 6.8-6.1 14.9-6.6 24.5-.5 8.1.6 14.6 3.2 19.3 2.6 4.8 6.3 7.5 11.1 8.3 5 .8 9.5-.8 13.5-4.8 3.4-3.4 6-7.9 7.8-13.3 2.2-6.5 3.5-13.3 3.8-20.3.5-8.2-.5-14.7-3-19.5-2.4-4.8-6-7.7-10.6-8.5-2.6-.4-4.7-.1-6.7 3zm11.4 31.3c-.4 5.8-1.5 11-3.5 15.6-2.4 5.5-5.2 8.5-8.3 9-.6.1-1.2 0-1.7-.1-3-1-4.6-4.3-5-10-.3-4.6.2-9.6 1.5-14.9 1.8-7.1 4.6-11.2 8.2-12.4 1.1-.3 2.2-.4 3.1-.2 2.5.5 4 3.2 4.6 8.1.1 1.5.2 3.1.1 4.9zM170.3 27.5c-4.9 1.5-9.1 5.3-12.5 11.3-3.9 6.8-6.1 14.9-6.6 24.5-.5 8.1.6 14.6 3.2 19.3 2.6 4.8 6.3 7.5 11.1 8.3 5 .8 9.5-.8 13.5-4.8 3.4-3.4 6-7.9 7.8-13.3 2.2-6.5 3.5-13.3 3.8-20.3.5-8.2-.5-14.7-3-19.5-2.4-4.8-6-7.7-10.6-8.5-2.6-.4-4.7-.1-6.7 3zm11.4 31.3c-.4 5.8-1.5 11-3.5 15.6-2.4 5.5-5.2 8.5-8.3 9-.6.1-1.2 0-1.7-.1-3-1-4.6-4.3-5-10-.3-4.6.2-9.6 1.5-14.9 1.8-7.1 4.6-11.2 8.2-12.4 1.1-.3 2.2-.4 3.1-.2 2.5.5 4 3.2 4.6 8.1.1 1.5.2 3.1.1 4.9z" fill="#fff"/><path d="M233.4 79.4c-1.1 2.8-1.9 4.3-2.4 4.3-.3 0-.6-1.1-.9-3.4l-5.6-37.4c-.3-2.3-1.5-3.7-3.4-4.3-1.9-.6-4.4-.5-7.5.2-2.2.5-3.7 1.5-4.5 3-.8 1.5-.9 3.1-.5 5l9 42.5c.8 3.7 2 6 3.6 6.9 1.6.9 3.4.9 5.5 0 2.8-1.2 5.5-4.5 8.1-9.9 1.2-2.4 5.2-12.2 12.2-29.3 1.2 5 2.9 11.3 5 18.9 2.6 9.4 4.6 15.5 5.8 18.5.8 2 2 3.2 3.5 3.5 1.5.3 3.4-.2 5.6-1.4 2.5-1.5 4.7-4.3 6.4-8.6l14.5-37.5c.8-2.2.8-4-.2-5.5-1-1.5-2.7-2.5-5.2-3-2.3-.5-4.1-.3-5.4.5-1.3.8-2.3 2.2-2.9 4.2l-7.7 23c-.7 2-1.2 3.4-1.5 4.3-.9-3-2.3-8.1-4.4-15.2-2.3-7.9-3.8-13.2-4.6-15.8-.7-2.3-1.7-3.7-3-4.2-1.3-.5-3-.5-5.2-.1-3.2.7-5 1.7-5.2 3l-9.3 24.1z" fill="#fff"/><path d="M336 113.5c-2.1-1.4-3.4-3.3-4-5.7l-1.2-4.8c-4.5 4.8-9.6 7.6-15.2 8.4-5.7.8-10.2-.7-13.4-4.5-3.1-3.8-4.8-8.9-5.1-15.3-.3-9 1.7-17.4 6.1-25.2 4.3-7.7 9.7-12.3 16-14 4.6-1.2 8.4-.3 11.5 2.6l-.4-3.2c-.3-2.6.1-4.6 1.3-6.1 1.2-1.5 3.1-2.6 5.7-3.3 2.3-.5 4.2-.3 5.7.5 1.5.8 2.4 2.5 2.8 5l7.5 48.9c.3 2.3-.1 4.3-1.2 5.8-1.1 1.5-2.9 2.8-5.6 3.8-3.7 1.4-7.8 1.6-11.2-1.5l.7 8.6zm-10.2-21.6c2.6-1.3 4.8-3.5 6.5-6.5l-2.9-19.3c-2.3-3.5-5-5-8.1-4.5-3.1.5-5.8 3-7.9 7.5-2.2 4.6-3.3 10-3.5 16.2-.1 4.9.5 8.5 1.9 10.6 1.5 2.2 3.3 3.2 5.5 2.9 3.1-.5 5.8-3.3 8.5-6.9z" fill="#fff"/><path d="M381.6 100.2c-3.6-3.4-5.6-8.4-6-15-.5-9.2 1.7-17.7 6.6-25.5 4.8-7.7 10.8-12.6 17.8-14.6 5.1-1.5 9.5-.7 13.1 2.2 3.7 3.2 5.8 8.1 6.4 14.8l1.7.1c2.6-.1 4.7.5 6.3 1.8 1.6 1.3 2.5 3.3 2.8 5.8.2 2.2-.2 4-.9 5.3-.8 1.3-2 2.2-3.6 2.7-.7.2-2.2.5-4.6.8l-.5 1.3c-3 7.7-7.2 13.6-12.7 17.7-5.5 4.1-11.2 5.8-17 5.2-3.5-.3-6.3-1.3-9.4-2.6zm23.3-14.3c2.8-3.8 4.6-8.5 5.5-13.9l-15.3 1.8c-1 .1-1.8-.1-2.5-.7-.7-.6-1.1-1.3-1.2-2.3-.1-1.1.1-2 .6-2.7.6-.7 1.3-1.2 2.3-1.3l15.7-1.9c-.2-3.8-1.3-6.5-3.2-8.1-1.9-1.6-4-2.1-6.5-1.4-3.5 1-6.7 3.9-9.5 8.7-2.8 4.8-4.3 10.3-4.5 16.5-.1 4.2.5 7.3 1.9 9.3 1.4 2 3.2 2.9 5.5 2.6 4.3-.5 7.9-3 10.9-6.6z" fill="#fff"/><path d="M454 84.6c-1.1-1.3-1.8-3.1-2.1-5.6l-4.3-29c-.3-2.5.1-4.6 1.4-6.2 1.3-1.6 3.3-2.7 6-3.4 2.4-.5 4.3-.3 5.7.6 1.4.9 2.3 2.6 2.6 5l.3 2.2c1.2-3.3 2.8-5.8 4.8-7.7 2-1.9 4-3.1 6-3.5 2.5-.6 4.6-.2 6.1 1.1 1.5 1.3 2.5 3.4 2.8 6.2.3 2.3 0 4.3-1.1 5.8-1 1.5-2.5 2.7-4.3 3.4-2.3.9-4.3 2.3-5.9 4.1-1.6 1.9-2.5 4.4-2.8 7.4-.1 1-.1 2 0 2.9l2.3 14.7c.3 2.3-.1 4.2-1.2 5.7-1.1 1.5-3 2.7-5.5 3.4-2.5.6-4.5.4-5.9-.4-1.5-.8-2.5-2.2-3-4.1-.5-.6-.7-1.4-.9-2.6z" fill="#fff"/></svg>