<svg xmlns="http://www.w3.org/2000/svg" viewBox="0 0 256 256"><path d="M128 0C57.308 0 0 57.308 0 128s57.308 128 128 128 128-57.308 128-128S198.692 0 128 0z" fill="#E91E63"/><path d="M128 60c-37.555 0-68 30.445-68 68s30.445 68 68 68 68-30.445 68-68-30.445-68-68-68zm0 20c26.51 0 48 21.49 48 48s-21.49 48-48 48-48-21.49-48-48 21.49-48 48-48z" fill="#fff"/><path d="M140 108h-24l-4 20h8c8.837 0 16 7.163 16 16s-7.163 16-16 16h-8" stroke="#fff" stroke-width="8" fill="none" stroke-linecap="round" stroke-linejoin="round"/></svg>