<svg xmlns="http://www.w3.org/2000/svg" viewBox="0 0 256 292"><path d="M223.774 57.34c-.201-1.46-1.48-2.268-2.537-2.357-1.055-.088-23.383-1.743-23.383-1.743s-15.507-15.395-17.209-17.099c-1.703-1.703-5.029-1.185-6.32-.805-.183.053-3.382.955-8.678 2.548C158.872 16.793 144.737 0 127.44 0c-.558 0-1.118.02-1.683.06C121.56 4.48 116.448 2.27 112.086 2.27c-27.782 0-41.095 34.742-45.257 52.351-10.856 3.367-18.591 5.762-19.59 6.097-6.115 1.916-6.303 2.104-7.1 7.832C39.274 74.14 16 245.638 16 245.638l166.467 31.323 90.074-19.536S224.047 59.286 223.774 57.34zM165.044 40.002l-20.135 6.242c0-4.3-.593-10.398-2.479-15.625 6.128 1.186 10.268 7.88 12.97 12.302 3.215.999 6.414 1.989 9.644 3.08zm-33.164 10.292l-21.622 6.702c2.093-8.04 6.088-16.04 13.564-21.23 2.946-2.045 7.074-4.301 11.837-4.927-1.357 5.7-3.45 14.067-3.779 19.455zm-21.19-33.32c2.07 0 4.02.39 5.832 1.138-14.088 6.634-20.67 22.88-23.47 33.77l-17.218 5.334C80.66 39.252 93.3 16.975 110.69 16.975z" fill="#95BF47"/><path d="M221.237 54.983c-1.055-.088-23.383-1.743-23.383-1.743s-15.507-15.395-17.209-17.099c-.637-.634-1.496-.945-2.42-1.07L182.467 277l90.074-19.536S224.047 59.286 223.774 57.34c-.201-1.46-1.48-2.268-2.537-2.357" fill="#5E8E3E"/><path d="M127.44 98.89l-10.99 32.656s-9.664-5.136-21.41-5.136c-17.29 0-18.154 10.854-18.154 13.59 0 14.916 38.87 20.64 38.87 55.622 0 27.508-17.444 45.225-40.977 45.225-28.224 0-42.673-17.556-42.673-17.556l7.556-24.94s14.85 12.77 27.39 12.77c8.187 0 11.516-6.449 11.516-11.164 0-19.485-31.893-20.363-31.893-52.396 0-26.94 19.35-53.01 58.423-53.01 15.016 0 22.342 4.34 22.342 4.34" fill="#FFF"/></svg>