<svg xmlns="http://www.w3.org/2000/svg" viewBox="0 0 24 24" fill="#c73a63"><path d="M10.46 9.867a2.537 2.537 0 0 0-1.322-1.34 2.54 2.54 0 0 0-3.412 1.14 2.535 2.535 0 0 0 1.14 3.4l.186.094-1.738 3.012a.76.76 0 0 0 .278 1.04.76.76 0 0 0 1.04-.278l2.166-3.752-.344-.199a1.026 1.026 0 0 1-.462-1.376 1.025 1.025 0 0 1 1.376-.462c.495.286.664.92.378 1.416l-.134.23 1.312.758.132-.23a2.535 2.535 0 0 0-.596-3.253zm7.24 4.627a2.535 2.535 0 0 0-1.14-3.4l-.186-.094 1.738-3.012a.76.76 0 0 0-.278-1.04.76.76 0 0 0-1.04.278l-2.166 3.752.344.199c.495.286.664.92.378 1.416a1.025 1.025 0 0 1-1.376.462 1.027 1.027 0 0 1-.378-1.416l.134-.23-1.312-.758-.132.23a2.535 2.535 0 0 0 .596 3.253 2.537 2.537 0 0 0 1.322 1.34 2.54 2.54 0 0 0 3.412-1.14 2.267 2.267 0 0 0 .084-.84zm-5.7.226a2.54 2.54 0 0 0 2.272-1.5l.094-.186 3.012 1.738a.76.76 0 0 0 1.04-.278.76.76 0 0 0-.278-1.04l-3.752-2.166-.199.344a1.025 1.025 0 0 1-1.376.462 1.027 1.027 0 0 1-.462-1.376 1.025 1.025 0 0 1 1.416-.378l.23.134.758-1.312-.23-.132a2.535 2.535 0 0 0-3.253.596 2.537 2.537 0 0 0-.282 1.882 2.536 2.536 0 0 0-.99 3.352l.094.186-3.012 1.738a.76.76 0 0 0-.278 1.04.76.76 0 0 0 1.04.278l3.752-2.166-.199-.344a1.054 1.054 0 0 1 .603-.79z"/></svg>